<svg width="20" height="20" viewBox="0 0 20 20" fill="none" xmlns="http://www.w3.org/2000/svg">
<path d="M5.83334 7.5L10 10.4167L14.1667 7.5" stroke="#FFD149" stroke-linecap="round" stroke-linejoin="round"/>
<path d="M1.66666 14.1667V5.83341C1.66666 5.39139 1.84225 4.96746 2.15481 4.6549C2.46737 4.34234 2.8913 4.16675 3.33332 4.16675H16.6667C17.1087 4.16675 17.5326 4.34234 17.8452 4.6549C18.1577 4.96746 18.3333 5.39139 18.3333 5.83341V14.1667C18.3333 14.6088 18.1577 15.0327 17.8452 15.3453C17.5326 15.6578 17.1087 15.8334 16.6667 15.8334H3.33332C2.8913 15.8334 2.46737 15.6578 2.15481 15.3453C1.84225 15.0327 1.66666 14.6088 1.66666 14.1667Z" stroke="#FFD149"/>
</svg>
