<svg width="20" height="20" viewBox="0 0 20 20" fill="none" xmlns="http://www.w3.org/2000/svg">
<path d="M17.5 6.66667V13.3333C17.5 14.4384 17.061 15.4982 16.2796 16.2796C15.4982 17.061 14.4384 17.5 13.3333 17.5H6.66667C5.5616 17.5 4.50179 17.061 3.72039 16.2796C2.93899 15.4982 2.5 14.4384 2.5 13.3333V6.66667C2.5 5.5616 2.93899 4.50179 3.72039 3.72039C4.50179 2.93899 5.5616 2.5 6.66667 2.5H13.3333C14.4384 2.5 15.4982 2.93899 16.2796 3.72039C17.061 4.50179 17.5 5.5616 17.5 6.66667Z" stroke="#5B5B6C" stroke-width="1.5" stroke-linecap="round" stroke-linejoin="round"/>
<path d="M9.16667 17.5001V10.0001C9.16667 8.17675 9.58333 6.66675 12.5 6.66675M7.5 10.8334H12.5" stroke="#5B5B6C" stroke-width="1.5" stroke-linecap="round" stroke-linejoin="round"/>
</svg>
