<?xml version="1.0" encoding="utf-8"?>
<!-- Generator: Adobe Illustrator 27.6.1, SVG Export Plug-In . SVG Version: 6.00 Build 0)  -->
<svg version="1.1" id="Layer_1" xmlns="http://www.w3.org/2000/svg" xmlns:xlink="http://www.w3.org/1999/xlink" x="0px" y="0px"
	 viewBox="0 0 12 14" style="enable-background:new 0 0 12 14;" xml:space="preserve">
<style type="text/css">
	.st0{fill:#A1E7D2;}
</style>
<path class="st0" d="M12,4.3V13c0,0.1,0,0.2,0,0.3c0,0.1-0.1,0.2-0.1,0.2c-0.1,0.1-0.1,0.1-0.2,0.1c-0.1,0-0.2,0.1-0.3,0.1H0.7
	c-0.2,0-0.3-0.1-0.5-0.2C0.1,13.3,0,13.2,0,13V1c0-0.4,0.3-0.7,0.7-0.7H8L12,4.3z M10.7,5H7.3V1.7h-6v10.7h9.3V5z M3.3,3.7h2V5h-2
	V3.7z M3.3,6.3h5.3v1.3H3.3V6.3z M3.3,9h5.3v1.3H3.3V9z"/>
</svg>
