<svg width="20" height="20" viewBox="0 0 20 20" fill="none" xmlns="http://www.w3.org/2000/svg">
<path d="M13.3333 18.3557V15.9641C13.3646 15.5667 13.3109 15.1672 13.1758 14.7922C13.0408 14.4172 12.8274 14.0753 12.55 13.7891C15.1667 13.4974 17.9167 12.5057 17.9167 7.95574C17.9164 6.79226 17.4689 5.67341 16.6667 4.83074C17.0465 3.81283 17.0197 2.6877 16.5917 1.68908C16.5917 1.68908 15.6083 1.39741 13.3333 2.92241C11.4233 2.40476 9.40998 2.40476 7.49999 2.92241C5.22499 1.39741 4.24166 1.68908 4.24166 1.68908C3.81364 2.6877 3.78678 3.81283 4.16666 4.83074C3.35843 5.67966 2.91043 6.80863 2.91666 7.98074C2.91666 12.4974 5.66666 13.4891 8.28332 13.8141C8.00915 14.0974 7.79771 14.4352 7.66275 14.8057C7.52778 15.1761 7.47233 15.5708 7.49999 15.9641V18.3557M7.49999 16.6891C4.99999 17.4999 2.91666 16.6891 1.66666 14.1891" stroke="#5B5B6C" stroke-width="1.5" stroke-linecap="round" stroke-linejoin="round"/>
</svg>
