<?xml version="1.0" encoding="UTF-8" standalone="no"?>
<svg
   id="Layer_1"
   data-name="Layer 1"
   width="3719.81"
   height="500"
   viewBox="0 0 3719.81 500"
   version="1.1"
   sodipodi:docname="logo.svg"
   inkscape:version="1.3.2 (091e20e, 2023-11-25)"
   xmlns:inkscape="http://www.inkscape.org/namespaces/inkscape"
   xmlns:sodipodi="http://sodipodi.sourceforge.net/DTD/sodipodi-0.dtd"
   xmlns="http://www.w3.org/2000/svg"
   xmlns:svg="http://www.w3.org/2000/svg">
  <defs
     id="defs14" />
  <sodipodi:namedview
     id="namedview14"
     pagecolor="#ffffff"
     bordercolor="#000000"
     borderopacity="0.25"
     inkscape:showpageshadow="2"
     inkscape:pageopacity="0.0"
     inkscape:pagecheckerboard="0"
     inkscape:deskcolor="#d1d1d1"
     inkscape:zoom="0.19167645"
     inkscape:cx="1857.2965"
     inkscape:cy="250.422"
     inkscape:window-width="1304"
     inkscape:window-height="783"
     inkscape:window-x="0"
     inkscape:window-y="34"
     inkscape:window-maximized="0"
     inkscape:current-layer="Layer_1"
     showgrid="false">
    <inkscape:grid
       id="grid14"
       units="px"
       originx="0"
       originy="0"
       spacingx="0.99999998"
       spacingy="1"
       empcolor="#0099e5"
       empopacity="0.30196078"
       color="#0099e5"
       opacity="0.14901961"
       empspacing="5"
       dotted="false"
       gridanglex="30"
       gridanglez="30"
       visible="false" />
  </sodipodi:namedview>
  <g
     id="website"
     transform="translate(-1100.8133,-26)">
    <g
       id="g14">
      <path
         d="m 1347.26,397.49 h -38.52 l -24.07,-53.33 h -0.13 l -55.8,-122.96 -55.8,122.96 h -0.13 l -24.07,53.33 h -38.52 l 118.52,-254.81 z"
         style="fill:#00ffcc"
         id="path1" />
      <path
         d="m 1378.62,205.49 h 27.62 v 193.32 h -27.62 z M 1422,398.81 v -27.62 h 62.49 v 27.62 z"
         style="fill:#00ffcc"
         id="path2" />
      <path
         d="m 1646.91,267.34 c 0,36.25 -24.17,64.73 -65.02,64.73 h -40.85 v 66.74 h -27.62 v -94.36 h 68.76 c 20.14,0 37.11,-10.36 37.11,-35.39 0,-25.03 -18.7,-35.96 -38.84,-35.96 h -67.03 v -27.62 h 59.84 c 50.34,0 73.65,25.31 73.65,61.85 z"
         style="fill:#00ffcc"
         id="path3" />
      <path
         d="m 1686.62,205.49 h 27.62 v 193.32 h -27.62 z m 43.79,110.47 v -27.62 h 59.31 v 27.62 z m 103.5,-110.47 v 193.32 h -27.62 v -82.85 h -0.41 v -27.62 h 0.41 v -82.85 z"
         style="fill:#00ffcc"
         id="path4" />
      <path
         d="m 2051.13,398.82 h -29.92 l -18.7,-41.43 h -0.1 l -43.34,-95.51 -43.34,95.51 h -0.1 l -18.7,41.43 h -29.92 l 92.06,-197.92 z"
         style="fill:#00ffcc"
         id="path5" />
      <path
         d="m 2250.46,322.68 c 0,42.96 -30,74.82 -80,74.82 h -91.85 v -35.56 h 85.93 c 30.74,0 50.37,-12.59 50.37,-40 0,-27.41 -19.63,-40 -50.37,-40 h -85.93 v -35.56 h 80 c 28.15,0 44.44,-9.63 44.44,-31.11 0,-21.48 -16.29,-31.11 -44.44,-31.11 h -80 V 148.6 h 74.44 c 53.7,0 85.55,22.22 85.55,65.19 0,24.81 -13.33,43.7 -29.63,50 29.26,7.04 41.48,34.07 41.48,58.89 z"
         style="fill:#ff7800"
         id="path6" />
      <path
         d="m 2304.88,205.49 65.59,115.07 v 78.25 h -27.62 v -78.25 l -69.04,-115.07 z m 134.63,0 -60.53,100.88 -14.61,-25.48 44.07,-75.4 z"
         style="fill:#ff7800"
         id="path7" />
      <path
         d="m 2451.41,232.62 v -27.13 h 128.88 v 27.13 z m 50.63,166.19 V 248.38 h 27.62 v 150.43 z"
         style="fill:#ff7800"
         id="path8" />
      <path
         d="m 2707.88,205.49 v 27.62 h -110.47 v -27.62 z m -110.47,110.47 v -27.22 h 96.66 v 27.22 z m 27.62,55.24 h 82.85 v 27.62 h -110.47 v -27.71 h 27.62 v 0.1 z"
         style="fill:#ff7800"
         id="path9" />
      <path
         d="m 2719.41,183.53 v -34.92 h 165.92 v 34.92 z m 65.19,213.96 V 203.82 h 35.55 v 193.67 z"
         style="fill:#00ffcc"
         id="path10" />
      <path
         d="m 3044.73,398.82 h -29.92 l -18.7,-41.43 h -0.1 l -43.34,-95.51 -43.34,95.51 h -0.1 l -18.7,41.43 h -29.92 l 92.06,-197.92 z"
         style="fill:#00ffcc"
         id="path11" />
      <path
         d="m 3238.51,205.49 v 197.92 l -161.1,-164.44 v -38.09 l 133.48,136.94 V 205.49 Z m -161.1,56.8 27.62,27.76 V 398.8 h -27.62 V 262.28 Z"
         style="fill:#00ffcc"
         id="path12" />
      <path
         d="m 3440.87,332.81 h 28.66 c -11.74,39.65 -46,68.3 -89.96,68.3 -54.66,0 -98.96,-44.3 -98.96,-98.96 0,-54.66 44.3,-98.96 98.96,-98.96 39.12,0 69.04,21.87 85.44,54.08 l -27.9,8.05 c -10.93,-20.71 -31.65,-34.52 -57.54,-34.52 -39.41,0 -71.34,31.93 -71.34,71.34 0,39.41 31.93,71.34 71.34,71.34 30.16,0 51.78,-16.8 61.29,-40.69 z m 33.07,-30.66 c 0,6.29 -0.55,12.44 -1.57,18.41 h -99.7 v -27.62 l 100.69,0.29 c 0.29,2.59 0.58,5.75 0.58,8.92 z"
         style="fill:#00ffcc"
         id="path13" />
      <path
         d="m 3596.89,203.53 v 27.71 c -35.92,3.87 -63.46,33.88 -63.46,70.91 0,37.03 27.54,67.05 63.46,70.91 v 27.71 c -50.97,-4.02 -91.08,-46.62 -91.08,-98.62 0,-52 40.11,-94.6 91.08,-98.62 z m 106.84,98.62 c 0,52.01 -40.11,94.61 -91.08,98.62 v -27.71 c 35.92,-3.87 63.46,-33.88 63.46,-70.91 0,-37.03 -27.54,-67.05 -63.46,-70.91 v -27.71 c 50.97,4.02 91.08,46.62 91.08,98.62 z"
         style="fill:#00ffcc"
         id="path14" />
    </g>
  </g>
</svg>
