<svg width="14" height="13" viewBox="0 0 14 13" fill="none" xmlns="http://www.w3.org/2000/svg">
<path d="M5.66628 0H8.33295C9.74743 0 11.104 0.561903 12.1042 1.5621C13.1044 2.56229 13.6663 3.91885 13.6663 5.33333C13.6663 6.74782 13.1044 8.10438 12.1042 9.10457C11.104 10.1048 9.74743 10.6667 8.33295 10.6667V13C4.99961 11.6667 0.332947 9.66667 0.332947 5.33333C0.332947 3.91885 0.89485 2.56229 1.89504 1.5621C2.89524 0.561903 4.25179 0 5.66628 0ZM6.99961 9.33333H8.33295C8.85823 9.33333 9.37838 9.22987 9.86368 9.02885C10.349 8.82783 10.7899 8.53319 11.1614 8.16176C11.5328 7.79033 11.8274 7.34937 12.0285 6.86407C12.2295 6.37877 12.3329 5.85862 12.3329 5.33333C12.3329 4.80805 12.2295 4.2879 12.0285 3.8026C11.8274 3.3173 11.5328 2.87634 11.1614 2.50491C10.7899 2.13347 10.349 1.83883 9.86368 1.63782C9.37838 1.4368 8.85823 1.33333 8.33295 1.33333H5.66628C4.60541 1.33333 3.588 1.75476 2.83785 2.50491C2.08771 3.25505 1.66628 4.27247 1.66628 5.33333C1.66628 7.74 3.30761 9.31067 6.99961 10.9867V9.33333Z" fill="black"/>
</svg>
