<svg width="256" height="256" viewBox="0 0 256 256" fill="none" xmlns="http://www.w3.org/2000/svg">
<path d="M149.333 224H42.6663C37.0084 224 31.5822 221.752 27.5814 217.752C23.5806 213.751 21.333 208.325 21.333 202.667V53.3333C21.333 47.6754 23.5806 42.2492 27.5814 38.2484C31.5822 34.2476 37.0084 32 42.6663 32H213.333C218.991 32 224.417 34.2476 228.418 38.2484C232.419 42.2492 234.666 47.6754 234.666 53.3333V138.667" stroke="white" stroke-width="4" stroke-linecap="round"/>
<path d="M21.333 74.6668H234.666M53.333 53.4401L53.4397 53.3228M85.333 53.4401L85.4397 53.3228M117.333 53.4401L117.44 53.3228M225.781 197.333H228.266C229.964 197.333 231.592 198.008 232.792 199.208C233.992 200.408 234.666 202.036 234.666 203.733V228.267C234.666 229.964 233.992 231.592 232.792 232.792C231.592 233.992 229.964 234.667 228.266 234.667H187.733C186.036 234.667 184.408 233.992 183.208 232.792C182.007 231.592 181.333 229.964 181.333 228.267V203.733C181.333 202.036 182.007 200.408 183.208 199.208C184.408 198.008 186.036 197.333 187.733 197.333H190.218M225.781 197.333V178.667C225.781 172.448 222.218 160 208 160C193.781 160 190.218 172.448 190.218 178.667V197.333M225.781 197.333H190.218" stroke="white" stroke-width="4" stroke-linecap="round" stroke-linejoin="round"/>
<path d="M64.176 138.792V136.512H70.464C71.344 136.512 72.048 136.256 72.576 135.744C73.12 135.232 73.392 134.544 73.392 133.68C73.392 132.784 73.12 132.088 72.576 131.592C72.048 131.08 71.344 130.824 70.464 130.824H64.56V144H61.824V128.448H70.272C71.088 128.448 71.848 128.56 72.552 128.784C73.256 128.992 73.872 129.312 74.4 129.744C74.944 130.176 75.36 130.72 75.648 131.376C75.952 132.016 76.104 132.784 76.104 133.68C76.104 134.56 75.952 135.328 75.648 135.984C75.36 136.624 74.944 137.152 74.4 137.568C73.872 137.984 73.256 138.296 72.552 138.504C71.848 138.696 71.088 138.792 70.272 138.792H64.176ZM78.7146 132.048H81.3786V144H78.7146V132.048ZM85.6986 134.328C84.8346 134.328 84.0906 134.512 83.4666 134.88C82.8586 135.248 82.3706 135.696 82.0026 136.224C81.6346 136.752 81.3786 137.264 81.2346 137.76L81.2106 136.416C81.2266 136.24 81.2826 135.976 81.3786 135.624C81.4746 135.256 81.6186 134.856 81.8106 134.424C82.0186 133.992 82.2906 133.576 82.6266 133.176C82.9786 132.76 83.4026 132.424 83.8986 132.168C84.4106 131.912 85.0106 131.784 85.6986 131.784V134.328ZM94.0746 144.264C92.7466 144.264 91.5546 144.024 90.4986 143.544C89.4426 143.064 88.6106 142.36 88.0026 141.432C87.3946 140.504 87.0906 139.376 87.0906 138.048C87.0906 136.736 87.3946 135.616 88.0026 134.688C88.6106 133.744 89.4426 133.024 90.4986 132.528C91.5546 132.032 92.7466 131.784 94.0746 131.784C95.4026 131.784 96.5866 132.032 97.6266 132.528C98.6666 133.024 99.4826 133.744 100.075 134.688C100.683 135.616 100.987 136.736 100.987 138.048C100.987 139.376 100.683 140.504 100.075 141.432C99.4826 142.36 98.6666 143.064 97.6266 143.544C96.5866 144.024 95.4026 144.264 94.0746 144.264ZM94.0746 142.08C94.8426 142.08 95.5466 141.928 96.1866 141.624C96.8266 141.32 97.3306 140.864 97.6986 140.256C98.0826 139.648 98.2746 138.912 98.2746 138.048C98.2746 137.184 98.0826 136.448 97.6986 135.84C97.3306 135.232 96.8266 134.768 96.1866 134.448C95.5626 134.112 94.8586 133.944 94.0746 133.944C93.2906 133.944 92.5786 134.104 91.9386 134.424C91.2986 134.744 90.7786 135.208 90.3786 135.816C89.9946 136.424 89.8026 137.168 89.8026 138.048C89.8026 138.912 89.9946 139.648 90.3786 140.256C90.7626 140.864 91.2746 141.32 91.9146 141.624C92.5706 141.928 93.2906 142.08 94.0746 142.08ZM102.343 132.048H110.791V134.232H102.343V132.048ZM105.223 128.832H107.911V144H105.223V128.832ZM122.683 140.064H125.251C125.123 140.88 124.803 141.608 124.291 142.248C123.795 142.872 123.115 143.368 122.251 143.736C121.387 144.088 120.355 144.264 119.155 144.264C117.795 144.264 116.579 144.016 115.507 143.52C114.435 143.008 113.595 142.288 112.987 141.36C112.379 140.432 112.075 139.328 112.075 138.048C112.075 136.784 112.371 135.68 112.963 134.736C113.555 133.792 114.371 133.064 115.411 132.552C116.467 132.04 117.683 131.784 119.059 131.784C120.483 131.784 121.667 132.04 122.611 132.552C123.571 133.048 124.283 133.8 124.747 134.808C125.211 135.8 125.403 137.056 125.323 138.576H114.787C114.867 139.248 115.083 139.856 115.435 140.4C115.803 140.928 116.299 141.344 116.923 141.648C117.547 141.936 118.275 142.08 119.107 142.08C120.035 142.08 120.811 141.896 121.435 141.528C122.075 141.16 122.491 140.672 122.683 140.064ZM118.987 133.944C117.899 133.944 117.003 134.216 116.299 134.76C115.595 135.288 115.139 135.968 114.931 136.8H122.635C122.571 135.904 122.211 135.208 121.555 134.712C120.899 134.2 120.043 133.944 118.987 133.944ZM140.563 139.368C140.467 140.392 140.139 141.272 139.579 142.008C139.019 142.744 138.267 143.304 137.323 143.688C136.395 144.072 135.323 144.264 134.107 144.264C132.795 144.264 131.603 144.024 130.531 143.544C129.475 143.064 128.635 142.36 128.011 141.432C127.387 140.504 127.075 139.376 127.075 138.048C127.075 136.72 127.387 135.592 128.011 134.664C128.635 133.736 129.475 133.024 130.531 132.528C131.603 132.032 132.795 131.784 134.107 131.784C135.323 131.784 136.395 131.984 137.323 132.384C138.251 132.768 138.995 133.32 139.555 134.04C140.115 134.76 140.443 135.632 140.539 136.656H138.091C137.819 135.808 137.323 135.152 136.603 134.688C135.899 134.208 135.067 133.968 134.107 133.968C133.323 133.968 132.603 134.128 131.947 134.448C131.291 134.752 130.763 135.208 130.363 135.816C129.979 136.408 129.787 137.152 129.787 138.048C129.787 138.928 129.979 139.672 130.363 140.28C130.763 140.888 131.291 141.344 131.947 141.648C132.603 141.936 133.323 142.08 134.107 142.08C135.163 142.08 136.027 141.848 136.699 141.384C137.387 140.904 137.859 140.232 138.115 139.368H140.563ZM142.07 132.048H150.518V134.232H142.07V132.048ZM144.95 128.832H147.638V144H144.95V128.832ZM162.41 140.064H164.978C164.85 140.88 164.53 141.608 164.018 142.248C163.522 142.872 162.842 143.368 161.978 143.736C161.114 144.088 160.082 144.264 158.882 144.264C157.522 144.264 156.306 144.016 155.234 143.52C154.162 143.008 153.322 142.288 152.714 141.36C152.106 140.432 151.802 139.328 151.802 138.048C151.802 136.784 152.098 135.68 152.69 134.736C153.282 133.792 154.098 133.064 155.138 132.552C156.194 132.04 157.41 131.784 158.786 131.784C160.21 131.784 161.394 132.04 162.338 132.552C163.298 133.048 164.01 133.8 164.474 134.808C164.938 135.8 165.13 137.056 165.049 138.576H154.514C154.594 139.248 154.81 139.856 155.162 140.4C155.53 140.928 156.026 141.344 156.65 141.648C157.274 141.936 158.002 142.08 158.834 142.08C159.762 142.08 160.538 141.896 161.162 141.528C161.802 141.16 162.218 140.672 162.41 140.064ZM158.714 133.944C157.626 133.944 156.73 134.216 156.026 134.76C155.322 135.288 154.866 135.968 154.658 136.8H162.362C162.298 135.904 161.938 135.208 161.282 134.712C160.626 134.2 159.77 133.944 158.714 133.944ZM172.754 144.264C171.65 144.264 170.642 144 169.73 143.472C168.834 142.944 168.122 142.216 167.594 141.288C167.066 140.344 166.802 139.264 166.802 138.048C166.802 136.8 167.058 135.712 167.57 134.784C168.098 133.84 168.802 133.104 169.682 132.576C170.578 132.048 171.602 131.784 172.754 131.784C173.762 131.784 174.61 131.952 175.298 132.288C175.986 132.608 176.53 133.056 176.93 133.632C177.33 134.192 177.618 134.848 177.794 135.6C177.986 136.352 178.082 137.168 178.082 138.048C178.082 138.704 177.986 139.4 177.794 140.136C177.602 140.856 177.298 141.528 176.882 142.152C176.482 142.776 175.938 143.288 175.25 143.688C174.578 144.072 173.746 144.264 172.754 144.264ZM173.57 142.056C174.466 142.056 175.226 141.888 175.85 141.552C176.49 141.2 176.97 140.72 177.29 140.112C177.626 139.504 177.794 138.816 177.794 138.048C177.794 137.2 177.626 136.48 177.29 135.888C176.954 135.28 176.474 134.808 175.85 134.472C175.226 134.136 174.466 133.968 173.57 133.968C172.29 133.968 171.298 134.352 170.594 135.12C169.89 135.872 169.538 136.848 169.538 138.048C169.538 138.832 169.706 139.528 170.042 140.136C170.394 140.744 170.874 141.216 171.482 141.552C172.09 141.888 172.786 142.056 173.57 142.056ZM177.794 127.248H180.482V144H177.986C177.954 143.632 177.914 143.176 177.866 142.632C177.818 142.088 177.794 141.6 177.794 141.168V127.248ZM190.058 127.752H192.746V139.152H190.058V127.752ZM193.01 141.408V144H189.794V141.408H193.01Z" fill="white"/>
</svg>
