<svg width="19" height="19" viewBox="0 0 19 19" fill="none" xmlns="http://www.w3.org/2000/svg">
<path d="M2.03102 5.91694L17.508 1.58294C17.5935 1.55903 17.6838 1.5583 17.7697 1.58084C17.8555 1.60338 17.9339 1.64837 17.9966 1.71119C18.0593 1.77401 18.1042 1.85239 18.1266 1.93829C18.149 2.02418 18.1481 2.11449 18.124 2.19994L13.791 17.6759C13.7635 17.7755 13.7058 17.8641 13.6259 17.9295C13.5459 17.9949 13.4477 18.034 13.3447 18.0413C13.2417 18.0487 13.1389 18.0239 13.0505 17.9705C12.9621 17.9171 12.8924 17.8376 12.851 17.7429L9.60302 10.3609C9.55287 10.2462 9.46152 10.1545 9.34702 10.1039L1.96502 6.85594C1.87037 6.81464 1.79083 6.74505 1.73732 6.65672C1.68382 6.56839 1.65897 6.46566 1.66621 6.36264C1.67344 6.25963 1.71239 6.16137 1.77772 6.08139C1.84304 6.0014 1.93153 5.94361 2.03102 5.91594V5.91694Z" stroke="#191925" stroke-width="1.5" stroke-linecap="round" stroke-linejoin="round"/>
</svg>
