<svg width="20" height="20" viewBox="0 0 20 20" fill="none" xmlns="http://www.w3.org/2000/svg">
<path d="M19.1667 2.50838C19.1667 2.50838 17.485 3.50171 16.55 3.78338C16.0481 3.20631 15.3811 2.79729 14.6392 2.61165C13.8973 2.42601 13.1162 2.47271 12.4017 2.74542C11.6872 3.01814 11.0737 3.50371 10.6441 4.13648C10.2146 4.76924 9.98974 5.51866 10 6.28338V7.11671C8.53552 7.15469 7.08439 6.82989 5.77584 6.17125C4.46728 5.51261 3.34193 4.54058 2.49999 3.34171C2.49999 3.34171 -0.833338 10.8417 6.66666 14.175C4.95043 15.34 2.90596 15.9242 0.833328 15.8417C8.33333 20.0084 17.5 15.8417 17.5 6.25838C17.5 6.02671 17.4767 5.79505 17.4333 5.56671C18.2833 4.72838 19.1667 2.50838 19.1667 2.50838Z" stroke="#5B5B6C" stroke-width="1.5" stroke-linecap="round" stroke-linejoin="round"/>
</svg>
